name analog
datacolumns 19
datarows 54
range 0.402 0.4285
endheader
time	ground_force_vx	ground_force_vy	ground_force_vz	ground_force_px	ground_force_py	ground_force_pz	l_ground_force_vx	l_ground_force_vy	l_ground_force_vz	l_ground_force_px	l_ground_force_py	l_ground_force_pz	ground_torque_x	ground_torque_y	ground_torque_z	l_ground_torque_x	l_ground_torque_y	l_ground_torque_z
0.402	-0.0	-0.0	-0.0	-8.044039726257324	8.457334518432617	-677.4788208007812	-0.0	-0.0	-0.0	-35.0419921875	16.083866119384766	75.4547119140625	-0.0	-0.0	-0.0	-0.0	-0.0	-0.0
0.4025	-0.0	-0.0	-0.0	-8.217473983764648	8.887795448303223	-675.6131591796875	-0.0	-0.0	-0.0	-34.88363265991211	16.54921531677246	75.18485260009766	-0.0	-0.0	-0.0	-0.0	-0.0	-0.0
0.403	-0.0	-0.0	-0.0	-7.42483377456665	8.006479263305664	-673.1207275390625	-0.0	-0.0	-0.0	-34.45192337036133	16.009361267089844	75.4547119140625	-0.0	-0.0	-0.0	-0.0	-0.0	-0.0
0.4035	-0.0	-0.0	-0.0	-7.473170757293701	6.185861587524414	-669.3775024414062	-0.0	-0.0	-0.0	-34.778377532958984	16.35865592956543	75.14488983154297	-0.0	-0.0	-0.0	-0.0	-0.0	-0.0
0.404	-0.0	-0.0	-0.0	-7.241548538208008	3.858412504196167	-669.2760009765625	-0.0	-0.0	-0.0	-34.62042999267578	15.787169456481934	76.13590240478516	-0.0	-0.0	-0.0	-0.0	-0.0	-0.0
0.4045	-0.0	-0.0	-0.0	-7.577707290649414	1.3628631830215454	-669.9412231445312	-0.0	-0.0	-0.0	-34.1943359375	16.194534301757812	75.86804962158203	-0.0	-0.0	-0.0	-0.0	-0.0	-0.0
0.405	-0.0	-0.0	-0.0	-6.569828987121582	-1.6778204441070557	-668.8814697265625	-0.0	-0.0	-0.0	-35.062381744384766	16.11530303955078	75.4547119140625	-0.0	-0.0	-0.0	-0.0	-0.0	-0.0
0.4055	-0.0	-0.0	-0.0	-6.339207649230957	-4.446006774902344	-668.6528930664062	-0.0	-0.0	-0.0	-34.97826385498047	16.374473571777344	74.83717346191406	-0.0	-0.0	-0.0	-0.0	-0.0	-0.0
0.406	-0.0	-0.0	-0.0	-5.552180290222168	-6.831376075744629	-669.9195556640625	-0.0	-0.0	-0.0	-34.96207046508789	16.379901885986328	76.17778778076172	-0.0	-0.0	-0.0	-0.0	-0.0	-0.0
0.40650000000000003	-0.0	-0.0	-0.0	-5.0903191566467285	-8.640334129333496	-668.8807373046875	-0.0	-0.0	-0.0	-35.06228256225586	15.772015571594238	76.11397552490234	-0.0	-0.0	-0.0	-0.0	-0.0	-0.0
0.40700000000000003	-0.0	-0.0	-0.0	-5.142064094543457	-11.633260726928713	-670.0035400390625	-0.0	-0.0	-0.0	-34.8942756652832	16.431419372558594	75.08229064941406	-0.0	-0.0	-0.0	-0.0	-0.0	-0.0
0.40750000000000003	-0.0	-0.0	-0.0	-5.514930725097656	-14.039652824401855	-671.7057495117188	-0.0	-0.0	-0.0	-34.97826385498047	16.093524932861328	76.994140625	-0.0	-0.0	-0.0	-0.0	-0.0	-0.0
0.40800000000000003	-0.0	-0.0	-0.0	-5.809505939483643	-15.948935508728027	-672.4974365234375	-0.0	-0.0	-0.0	-34.91643524169922	16.374473571777344	75.47639465332031	-0.0	-0.0	-0.0	-0.0	-0.0	-0.0
0.40850000000000003	-0.0	-0.0	-0.0	-7.025834083557129	-17.636930465698242	-674.1341552734375	-0.0	-0.0	-0.0	-34.82160568237305	16.25652313232422	75.54203033447266	-0.0	-0.0	-0.0	-0.0	-0.0	-0.0
0.40900000000000003	-0.0	-0.0	-0.0	-7.036685466766357	-18.59544944763184	-673.8673095703125	-0.0	-0.0	-0.0	-34.88321304321289	16.26764488220215	76.17853546142578	-0.0	-0.0	-0.0	-0.0	-0.0	-0.0
0.40950000000000003	-0.0	-0.0	-0.0	-7.856035232543945	-20.02130889892578	-671.813720703125	-0.0	-0.0	-0.0	-34.47526931762695	16.256214141845703	74.6004867553711	-0.0	-0.0	-0.0	-0.0	-0.0	-0.0
0.41000000000000003	-0.0	-0.0	-0.0	-8.196270942687988	-20.51107788085937	-671.8141479492188	-0.0	-0.0	-0.0	-34.88313674926758	16.104564666748047	77.1650390625	-0.0	-0.0	-0.0	-0.0	-0.0	-0.0
0.41050000000000003	-0.0	-0.0	-0.0	-8.402503967285156	-21.9818058013916	-673.1830444335938	-0.0	-0.0	-0.0	-34.715572357177734	15.93606662750244	74.79743957519531	-0.0	-0.0	-0.0	-0.0	-0.0	-0.0
0.41100000000000003	-0.0	-0.0	-0.0	-8.904224395751953	-23.16830062866211	-674.9046630859375	-0.0	-0.0	-0.0	-34.72705841064453	16.267230987548828	77.47058868408203	-0.0	-0.0	-0.0	-0.0	-0.0	-0.0
0.41150000000000003	-0.0	-0.0	-0.0	-9.678772926330566	-22.58384132385254	-674.5289916992188	-0.0	-0.0	-0.0	-34.37510299682617	16.531230926513672	76.43974304199219	-0.0	-0.0	-0.0	-0.0	-0.0	-0.0
0.41200000000000003	-0.0	-0.0	-0.0	-11.284260749816896	-22.862815856933597	-675.3475341796875	-0.0	-0.0	-0.0	-35.13397979736328	15.959627151489258	74.84382629394531	-0.0	-0.0	-0.0	-0.0	-0.0	-0.0
0.41250000000000003	-0.0	-0.0	-0.0	-13.240999221801758	-22.57280158996582	-673.8221435546875	-0.0	-0.0	-0.0	-34.960792541503906	16.09870719909668	75.8285140991211	-0.0	-0.0	-0.0	-0.0	-0.0	-0.0
0.41300000000000003	-0.0	-0.0	-0.0	-14.167236328125	-21.966259002685547	-674.9041137695312	-0.0	-0.0	-0.0	-35.03255081176758	16.11046028137207	76.36959838867188	-0.0	-0.0	-0.0	-0.0	-0.0	-0.0
0.41350000000000003	-0.0	-0.0	-0.0	-15.47058391571045	-21.218812942504883	-672.761962890625	-0.0	-0.0	-0.0	-34.799346923828125	16.182668685913086	76.13347625732422	-0.0	-0.0	-0.0	-0.0	-0.0	-0.0
0.41400000000000003	-0.0	-0.0	-0.0	-16.569931030273438	-20.15507125854492	-672.032470703125	-0.0	-0.0	-0.0	-34.97826385498047	15.94844913482666	75.68949890136719	-0.0	-0.0	-0.0	-0.0	-0.0	-0.0
0.41450000000000004	-0.0	-0.0	-0.0	-18.17556953430176	-18.4966983795166	-670.7581176757812	-0.0	-0.0	-0.0	-34.86496353149414	16.452455520629883	76.41404724121094	-0.0	-0.0	-0.0	-0.0	-0.0	-0.0
0.41500000000000004	-0.0	-0.0	-0.0	-20.99486923217773	-16.125734329223633	-672.0781860351562	-0.0	-0.0	-0.0	-35.31210708618164	16.350345611572266	76.13308715820312	-0.0	-0.0	-0.0	-0.0	-0.0	-0.0
0.41550000000000004	-0.0	-0.0	-0.0	-22.92119789123535	-13.963324546813965	-671.8884887695312	-0.0	-0.0	-0.0	-34.62042999267578	16.386571884155273	76.13301849365234	-0.0	-0.0	-0.0	-0.0	-0.0	-0.0
0.41600000000000004	-0.0	-0.0	-0.0	-24.78863906860352	-11.907766342163086	-672.45458984375	-0.0	-0.0	-0.0	-34.62042999267578	16.511804580688477	75.78192138671875	-0.0	-0.0	-0.0	-0.0	-0.0	-0.0
0.4165	-0.0	-0.0	-0.0	-26.02555274963379	-9.317349433898926	-673.6088256835938	-0.0	-0.0	-0.0	-34.83588790893555	16.110689163208008	76.7868423461914	-0.0	-0.0	-0.0	-0.0	-0.0	-0.0
0.417	-0.0	-0.0	-0.0	-27.03677749633789	-7.6951494216918945	-677.7285766601562	-0.0	-0.0	-0.0	-34.882694244384766	15.846943855285645	75.103759765625	-0.0	-0.0	-0.0	-0.0	-0.0	-0.0
0.4175	-0.0	-0.0	-0.0	-27.107934951782227	-5.282792091369629	-682.4580688476562	-0.0	-0.0	-0.0	-35.049278259277344	16.0983829498291	75.12787628173828	-0.0	-0.0	-0.0	-0.0	-0.0	-0.0
0.418	-0.0	-0.0	-0.0	-25.83644676208496	-3.024371385574341	-685.5942993164062	-0.0	-0.0	-0.0	-34.99681854248047	16.18209457397461	76.10808563232422	-0.0	-0.0	-0.0	-0.0	-0.0	-0.0
0.4185	-0.0	-0.0	-0.0	-24.092927932739254	-1.3612921237945557	-692.7462158203125	-0.0	-0.0	-0.0	-34.95964431762695	16.27202033996582	75.38166046142578	-0.0	-0.0	-0.0	-0.0	-0.0	-0.0
0.419	-0.0	-0.0	-0.0	-22.11195373535156	-0.0952509120106697	-696.3980712890625	-0.0	-0.0	-0.0	-34.97201919555664	16.20709228515625	75.68319702148438	-0.0	-0.0	-0.0	-0.0	-0.0	-0.0
0.4195	-0.0	-0.0	-0.0	-20.12167358398437	0.2981820106506347	-705.8602905273438	-0.0	-0.0	-0.0	-35.15718078613281	16.284503936767578	77.96663665771484	-0.0	-0.0	-0.0	-0.0	-0.0	-0.0
0.42	-0.0	-0.0	-0.0	-17.445659637451172	0.40608811378479	-712.8739013671875	-0.0	-0.0	-0.0	-34.63938522338867	16.271793365478516	75.22770690917969	-0.0	-0.0	-0.0	-0.0	-0.0	-0.0
0.4205	-0.0	-0.0	-0.0	-15.79648208618164	1.1027512550354004	-721.5958862304688	-0.0	-0.0	-0.0	-35.119144439697266	16.18178367614746	75.42984008789062	-0.0	-0.0	-0.0	-0.0	-0.0	-0.0
0.421	-0.0	-0.0	-0.0	-13.973173141479492	0.3565216064453125	-733.709716796875	-0.0	-0.0	-0.0	-34.72263717651367	16.18170738220215	75.50474548339844	-0.0	-0.0	-0.0	-0.0	-0.0	-0.0
0.4215	-0.0	-0.0	-0.0	-12.915579795837402	-0.4016128778457641	-737.8676147460938	-0.0	-0.0	-0.0	-34.55021286010742	16.104564666748047	76.73269653320312	-0.0	-0.0	-0.0	-0.0	-0.0	-0.0
0.422	-0.0	-0.0	-0.0	-11.603680610656738	-1.0506387948989868	-747.9351806640625	-0.0	-0.0	-0.0	-34.95253372192383	16.59263038635254	75.40424346923828	-0.0	-0.0	-0.0	-0.0	-0.0	-0.0
0.4225	-0.0	-0.0	-0.0	-10.482093811035156	-2.9032251834869385	-756.6634521484375	-0.0	-0.0	-0.0	-34.69047546386719	16.367965698242188	75.8056640625	-0.0	-0.0	-0.0	-0.0	-0.0	-0.0
0.423	-0.0	-0.0	-0.0	-8.831840515136719	-4.138057231903076	-766.2234497070312	-0.0	-0.0	-0.0	-34.862770080566406	16.207624435424805	74.15302276611328	-0.0	-0.0	-0.0	-0.0	-0.0	-0.0
0.4235	-0.0	-0.0	-0.0	-7.525742530822754	-5.023333549499512	-772.353759765625	-0.0	-0.0	-0.0	-35.137603759765625	16.130817413330078	75.8824691772461	-0.0	-0.0	-0.0	-0.0	-0.0	-0.0
0.424	-0.0	-0.0	-0.0	-6.194222927093506	-6.2069091796875	-782.0637817382812	-0.0	-0.0	-0.0	-35.137489318847656	16.181331634521484	73.93170166015625	-0.0	-0.0	-0.0	-0.0	-0.0	-0.0
0.4245	-0.0	-0.0	-0.0	-5.61377477645874	-7.059135913848877	-787.59130859375	-0.0	-0.0	-0.0	-35.061119079589844	16.437885284423828	76.4816665649414	-0.0	-0.0	-0.0	-0.0	-0.0	-0.0
0.425	-0.0	-0.0	-0.0	-5.633272647857666	-7.315192222595215	-794.2501220703125	-0.0	-0.0	-0.0	-34.76622772216797	16.227842330932617	75.50668334960938	-0.0	-0.0	-0.0	-0.0	-0.0	-0.0
0.4255	-0.0	-0.0	-0.0	-4.926206588745117	-7.843475341796875	-798.2125244140625	-0.0	-0.0	-0.0	-34.6832389831543	16.457744598388672	76.1566162109375	-0.0	-0.0	-0.0	-0.0	-0.0	-0.0
0.426	-0.0	-0.0	-0.0	-4.810786724090576	-7.163305759429932	-802.725830078125	-0.0	-0.0	-0.0	-34.81944274902344	16.034807205200195	76.20918273925781	-0.0	-0.0	-0.0	-0.0	-0.0	-0.0
0.4265	-0.0	-0.0	-0.0	-4.447320938110352	-6.787103176116943	-803.8375244140625	-0.0	-0.0	-0.0	-34.958099365234375	16.430646896362305	75.01647186279297	-0.0	-0.0	-0.0	-0.0	-0.0	-0.0
0.427	-0.0	-0.0	-0.0	-4.021111488342285	-6.074132442474365	-803.3414916992188	-0.0	-0.0	-0.0	-34.80610275268555	16.090972900390625	75.9382095336914	-0.0	-0.0	-0.0	-0.0	-0.0	-0.0
0.4275	-0.0	-0.0	-0.0	-3.911909818649292	-5.209585189819336	-805.0028076171875	-0.0	-0.0	-0.0	-34.716678619384766	16.12506675720215	75.05044555664062	-0.0	-0.0	-0.0	-0.0	-0.0	-0.0
0.428	-0.0	-0.0	-0.0	-4.090255737304688	-4.579190254211426	-803.2907104492188	-0.0	-0.0	-0.0	-35.12984848022461	16.250144958496094	75.34748840332031	-0.0	-0.0	-0.0	-0.0	-0.0	-0.0
0.4285	-0.0	-0.0	-0.0	-4.007737159729004	-4.3270111083984375	-801.4185791015625	-0.0	-0.0	-0.0	-34.8819465637207	15.952200889587402	75.94148254394531	-0.0	-0.0	-0.0	-0.0	-0.0	-0.0
